<?xml version="1.0" encoding="UTF-8" standalone="no"?><svg xmlns="http://www.w3.org/2000/svg" xmlns:xlink="http://www.w3.org/1999/xlink" contentStyleType="text/css" height="676px" preserveAspectRatio="none" style="width:1192px;height:676px;background:#FFFFFF;" version="1.1" viewBox="0 0 1192 676" width="1192px" zoomAndPan="magnify"><defs/><g><rect fill="none" height="27.6094" id="_title" style="stroke:none;stroke-width:1.0;" width="292" x="451.5" y="10"/><text fill="#000000" font-family="sans-serif" font-size="14" font-weight="bold" lengthAdjust="spacing" textLength="282" x="456.5" y="29.5332">Scenario 1: pay debt before period ends</text><line style="stroke:#181818;stroke-width:0.5;stroke-dasharray:5.0,5.0;" x1="36" x2="36" y1="121.2188" y2="374.0313"/><line style="stroke:#A80036;stroke-width:1.0;stroke-dasharray:1.0,4.0;" x1="36" x2="36" y1="374.0313" y2="402.0313"/><line style="stroke:#181818;stroke-width:0.5;stroke-dasharray:5.0,5.0;" x1="36" x2="36" y1="402.0313" y2="594.1406"/><line style="stroke:#181818;stroke-width:0.5;stroke-dasharray:5.0,5.0;" x1="403.5" x2="403.5" y1="121.2188" y2="374.0313"/><line style="stroke:#A80036;stroke-width:1.0;stroke-dasharray:1.0,4.0;" x1="403.5" x2="403.5" y1="374.0313" y2="402.0313"/><line style="stroke:#181818;stroke-width:0.5;stroke-dasharray:5.0,5.0;" x1="403.5" x2="403.5" y1="402.0313" y2="594.1406"/><line style="stroke:#181818;stroke-width:0.5;stroke-dasharray:5.0,5.0;" x1="776" x2="776" y1="121.2188" y2="374.0313"/><line style="stroke:#A80036;stroke-width:1.0;stroke-dasharray:1.0,4.0;" x1="776" x2="776" y1="374.0313" y2="402.0313"/><line style="stroke:#181818;stroke-width:0.5;stroke-dasharray:5.0,5.0;" x1="776" x2="776" y1="402.0313" y2="594.1406"/><line style="stroke:#181818;stroke-width:0.5;stroke-dasharray:5.0,5.0;" x1="1165" x2="1165" y1="121.2188" y2="374.0313"/><line style="stroke:#A80036;stroke-width:1.0;stroke-dasharray:1.0,4.0;" x1="1165" x2="1165" y1="374.0313" y2="402.0313"/><line style="stroke:#181818;stroke-width:0.5;stroke-dasharray:5.0,5.0;" x1="1165" x2="1165" y1="402.0313" y2="594.1406"/><text fill="#000000" font-family="sans-serif" font-size="14" lengthAdjust="spacing" textLength="57" x="5" y="118.1426">Borrower</text><ellipse cx="36.5" cy="52.1094" fill="#E2E2F0" rx="8" ry="8" style="stroke:#181818;stroke-width:0.5;"/><path d="M36.5,60.1094 L36.5,87.1094 M23.5,68.1094 L49.5,68.1094 M36.5,87.1094 L23.5,102.1094 M36.5,87.1094 L49.5,102.1094 " fill="none" style="stroke:#181818;stroke-width:0.5;"/><text fill="#000000" font-family="sans-serif" font-size="14" lengthAdjust="spacing" textLength="57" x="5" y="607.6738">Borrower</text><ellipse cx="36.5" cy="619.25" fill="#E2E2F0" rx="8" ry="8" style="stroke:#181818;stroke-width:0.5;"/><path d="M36.5,627.25 L36.5,654.25 M23.5,635.25 L49.5,635.25 M36.5,654.25 L23.5,669.25 M36.5,654.25 L49.5,669.25 " fill="none" style="stroke:#181818;stroke-width:0.5;"/><rect fill="#E2E2F0" height="31.6094" rx="2.5" ry="2.5" style="stroke:#181818;stroke-width:0.5;" width="90" x="358.5" y="88.6094"/><text fill="#000000" font-family="sans-serif" font-size="14" lengthAdjust="spacing" textLength="76" x="365.5" y="110.1426">DAIContract</text><rect fill="#E2E2F0" height="31.6094" rx="2.5" ry="2.5" style="stroke:#181818;stroke-width:0.5;" width="90" x="358.5" y="593.1406"/><text fill="#000000" font-family="sans-serif" font-size="14" lengthAdjust="spacing" textLength="76" x="365.5" y="614.6738">DAIContract</text><rect fill="#E2E2F0" height="31.6094" rx="2.5" ry="2.5" style="stroke:#181818;stroke-width:0.5;" width="159" x="697" y="88.6094"/><text fill="#000000" font-family="sans-serif" font-size="14" lengthAdjust="spacing" textLength="145" x="704" y="110.1426">CollateralizedLeverage</text><rect fill="#E2E2F0" height="31.6094" rx="2.5" ry="2.5" style="stroke:#181818;stroke-width:0.5;" width="159" x="697" y="593.1406"/><text fill="#000000" font-family="sans-serif" font-size="14" lengthAdjust="spacing" textLength="145" x="704" y="614.6738">CollateralizedLeverage</text><text fill="#000000" font-family="sans-serif" font-size="14" lengthAdjust="spacing" textLength="45" x="1140" y="118.1426">Lender</text><ellipse cx="1165.5" cy="52.1094" fill="#E2E2F0" rx="8" ry="8" style="stroke:#181818;stroke-width:0.5;"/><path d="M1165.5,60.1094 L1165.5,87.1094 M1152.5,68.1094 L1178.5,68.1094 M1165.5,87.1094 L1152.5,102.1094 M1165.5,87.1094 L1178.5,102.1094 " fill="none" style="stroke:#181818;stroke-width:0.5;"/><text fill="#000000" font-family="sans-serif" font-size="14" lengthAdjust="spacing" textLength="45" x="1140" y="607.6738">Lender</text><ellipse cx="1165.5" cy="619.25" fill="#E2E2F0" rx="8" ry="8" style="stroke:#181818;stroke-width:0.5;"/><path d="M1165.5,627.25 L1165.5,654.25 M1152.5,635.25 L1178.5,635.25 M1165.5,654.25 L1152.5,669.25 M1165.5,654.25 L1178.5,669.25 " fill="none" style="stroke:#181818;stroke-width:0.5;"/><polygon fill="#181818" points="764.5,149.5703,774.5,153.5703,764.5,157.5703,768.5,153.5703" style="stroke:#181818;stroke-width:1.0;"/><line style="stroke:#181818;stroke-width:1.0;" x1="36.5" x2="770.5" y1="153.5703" y2="153.5703"/><text fill="#000000" font-family="sans-serif" font-size="13" font-weight="bold" lengthAdjust="spacing" textLength="7" x="43.5" y="148.7139">1</text><text fill="#000000" font-family="sans-serif" font-size="13" lengthAdjust="spacing" textLength="247" x="54.5" y="148.7139">newLoanRequest(collateralAmount in ETH)</text><polygon fill="#181818" points="1153.5,179.9219,1163.5,183.9219,1153.5,187.9219,1157.5,183.9219" style="stroke:#181818;stroke-width:1.0;"/><line style="stroke:#181818;stroke-width:1.0;" x1="36.5" x2="1159.5" y1="183.9219" y2="183.9219"/><text fill="#000000" font-family="sans-serif" font-size="13" font-weight="bold" lengthAdjust="spacing" textLength="7" x="43.5" y="179.0654">2</text><text fill="#000000" font-family="sans-serif" font-size="13" lengthAdjust="spacing" textLength="303" x="54.5" y="179.0654">address (via whatsapp, discord, email phone etc :D )</text><polygon fill="#181818" points="787.5,210.2734,777.5,214.2734,787.5,218.2734,783.5,214.2734" style="stroke:#181818;stroke-width:1.0;"/><line style="stroke:#181818;stroke-width:1.0;" x1="781.5" x2="1164.5" y1="214.2734" y2="214.2734"/><text fill="#000000" font-family="sans-serif" font-size="13" font-weight="bold" lengthAdjust="spacing" textLength="7" x="793.5" y="209.417">3</text><text fill="#000000" font-family="sans-serif" font-size="13" lengthAdjust="spacing" textLength="147" x="804.5" y="209.417">viewLoanRecord(address)</text><polygon fill="#181818" points="1153.5,240.625,1163.5,244.625,1153.5,248.625,1157.5,244.625" style="stroke:#181818;stroke-width:1.0;"/><line style="stroke:#181818;stroke-width:1.0;stroke-dasharray:2.0,2.0;" x1="776.5" x2="1159.5" y1="244.625" y2="244.625"/><text fill="#000000" font-family="sans-serif" font-size="13" font-weight="bold" lengthAdjust="spacing" textLength="7" x="783.5" y="239.7686">4</text><text fill="#000000" font-family="sans-serif" font-size="13" lengthAdjust="spacing" textLength="354" x="794.5" y="239.7686">requestedAmountInDAI (half worth of collateralAmount in DAI)</text><polygon fill="#181818" points="414.5,270.9766,404.5,274.9766,414.5,278.9766,410.5,274.9766" style="stroke:#181818;stroke-width:1.0;"/><line style="stroke:#181818;stroke-width:1.0;" x1="408.5" x2="1164.5" y1="274.9766" y2="274.9766"/><text fill="#000000" font-family="sans-serif" font-size="13" font-weight="bold" lengthAdjust="spacing" textLength="7" x="420.5" y="270.1201">5</text><text fill="#000000" font-family="sans-serif" font-size="13" lengthAdjust="spacing" textLength="308" x="431.5" y="270.1201">approve(CLContract address, requestedAmountInDAI)</text><polygon fill="#181818" points="787.5,301.3281,777.5,305.3281,787.5,309.3281,783.5,305.3281" style="stroke:#181818;stroke-width:1.0;"/><line style="stroke:#181818;stroke-width:1.0;" x1="781.5" x2="1164.5" y1="305.3281" y2="305.3281"/><text fill="#000000" font-family="sans-serif" font-size="13" font-weight="bold" lengthAdjust="spacing" textLength="7" x="793.5" y="300.4717">6</text><text fill="#000000" font-family="sans-serif" font-size="13" lengthAdjust="spacing" textLength="169" x="804.5" y="300.4717">acceptLoanRequest(address)</text><polygon fill="#181818" points="414.5,331.6797,404.5,335.6797,414.5,339.6797,410.5,335.6797" style="stroke:#181818;stroke-width:1.0;"/><line style="stroke:#181818;stroke-width:1.0;" x1="408.5" x2="775.5" y1="335.6797" y2="335.6797"/><text fill="#000000" font-family="sans-serif" font-size="13" font-weight="bold" lengthAdjust="spacing" textLength="7" x="420.5" y="330.8232">7</text><text fill="#000000" font-family="sans-serif" font-size="13" lengthAdjust="spacing" textLength="314" x="431.5" y="330.8232">transferFrom(lender, borrower, requestedAmountInDAI)</text><polygon fill="#181818" points="47.5,362.0313,37.5,366.0313,47.5,370.0313,43.5,366.0313" style="stroke:#181818;stroke-width:1.0;"/><line style="stroke:#181818;stroke-width:1.0;" x1="41.5" x2="402.5" y1="366.0313" y2="366.0313"/><text fill="#000000" font-family="sans-serif" font-size="13" font-weight="bold" lengthAdjust="spacing" textLength="7" x="53.5" y="361.1748">8</text><text fill="#000000" font-family="sans-serif" font-size="13" lengthAdjust="spacing" textLength="184" x="64.5" y="361.1748">transfer(requestedAmountInDAI)</text><polygon fill="#181818" points="764.5,420.3828,774.5,424.3828,764.5,428.3828,768.5,424.3828" style="stroke:#181818;stroke-width:1.0;"/><line style="stroke:#181818;stroke-width:1.0;" x1="36.5" x2="770.5" y1="424.3828" y2="424.3828"/><text fill="#000000" font-family="sans-serif" font-size="13" font-weight="bold" lengthAdjust="spacing" textLength="7" x="43.5" y="419.5264">9</text><text fill="#000000" font-family="sans-serif" font-size="13" lengthAdjust="spacing" textLength="78" x="54.5" y="419.5264">currendDebt()</text><polygon fill="#181818" points="47.5,450.7344,37.5,454.7344,47.5,458.7344,43.5,454.7344" style="stroke:#181818;stroke-width:1.0;"/><line style="stroke:#181818;stroke-width:1.0;stroke-dasharray:2.0,2.0;" x1="41.5" x2="775.5" y1="454.7344" y2="454.7344"/><text fill="#000000" font-family="sans-serif" font-size="13" font-weight="bold" lengthAdjust="spacing" textLength="14" x="53.5" y="449.8779">10</text><text fill="#000000" font-family="sans-serif" font-size="13" lengthAdjust="spacing" textLength="150" x="71.5" y="449.8779">currentDebthAmountInDAI</text><polygon fill="#181818" points="391.5,481.0859,401.5,485.0859,391.5,489.0859,395.5,485.0859" style="stroke:#181818;stroke-width:1.0;"/><line style="stroke:#181818;stroke-width:1.0;" x1="36.5" x2="397.5" y1="485.0859" y2="485.0859"/><text fill="#000000" font-family="sans-serif" font-size="13" font-weight="bold" lengthAdjust="spacing" textLength="14" x="43.5" y="480.2295">11</text><text fill="#000000" font-family="sans-serif" font-size="13" lengthAdjust="spacing" textLength="325" x="61.5" y="480.2295">approve(CLContract address, currentDebthAmountInDAI)</text><polygon fill="#181818" points="764.5,511.4375,774.5,515.4375,764.5,519.4375,768.5,515.4375" style="stroke:#181818;stroke-width:1.0;"/><line style="stroke:#181818;stroke-width:1.0;" x1="36.5" x2="770.5" y1="515.4375" y2="515.4375"/><text fill="#000000" font-family="sans-serif" font-size="13" font-weight="bold" lengthAdjust="spacing" textLength="14" x="43.5" y="510.5811">12</text><text fill="#000000" font-family="sans-serif" font-size="13" lengthAdjust="spacing" textLength="206" x="61.5" y="510.5811">payDebt(currentDebthAmountInDAI)</text><polygon fill="#181818" points="414.5,541.7891,404.5,545.7891,414.5,549.7891,410.5,545.7891" style="stroke:#181818;stroke-width:1.0;"/><line style="stroke:#181818;stroke-width:1.0;" x1="408.5" x2="775.5" y1="545.7891" y2="545.7891"/><text fill="#000000" font-family="sans-serif" font-size="13" font-weight="bold" lengthAdjust="spacing" textLength="14" x="420.5" y="540.9326">13</text><text fill="#000000" font-family="sans-serif" font-size="13" lengthAdjust="spacing" textLength="331" x="438.5" y="540.9326">transferFrom(borrower, lender, currentDebthAmountInDAI)</text><polygon fill="#181818" points="1153.5,572.1406,1163.5,576.1406,1153.5,580.1406,1157.5,576.1406" style="stroke:#181818;stroke-width:1.0;"/><line style="stroke:#181818;stroke-width:1.0;" x1="403.5" x2="1159.5" y1="576.1406" y2="576.1406"/><text fill="#000000" font-family="sans-serif" font-size="13" font-weight="bold" lengthAdjust="spacing" textLength="14" x="410.5" y="571.2842">14</text><text fill="#000000" font-family="sans-serif" font-size="13" lengthAdjust="spacing" textLength="201" x="428.5" y="571.2842">transfer(currentDebthAmountInDAI)</text><!--MD5=[3602196aa841fa315dad81a00423e900]
@startuml scenario1
autonumber

title "Scenario 1: pay debt before period ends"

actor Borrower
participant DAIContract
participant CollateralizedLeverage as CLContract
actor Lender

Borrower -> CLContract: newLoanRequest(collateralAmount in ETH)
Borrower -> Lender: address (via whatsapp, discord, email phone etc :D )
Lender -> CLContract: viewLoanRecord(address)
CLContract - -> Lender: requestedAmountInDAI (half worth of collateralAmount in DAI)
Lender -> DAIContract: approve(CLContract address, requestedAmountInDAI)
Lender -> CLContract: acceptLoanRequest(address)
CLContract -> DAIContract: transferFrom(lender, borrower, requestedAmountInDAI)
DAIContract -> Borrower: transfer(requestedAmountInDAI)
...
Borrower -> CLContract: currendDebt()
CLContract - -> Borrower: currentDebthAmountInDAI
Borrower -> DAIContract: approve(CLContract address, currentDebthAmountInDAI)
Borrower -> CLContract: payDebt(currentDebthAmountInDAI)
CLContract -> DAIContract: transferFrom(borrower, lender, currentDebthAmountInDAI)
DAIContract -> Lender: transfer(currentDebthAmountInDAI)

@enduml

PlantUML version 1.2022.7(Mon Aug 22 20:01:30 EEST 2022)
(GPL source distribution)
Java Runtime: Java(TM) SE Runtime Environment
JVM: Java HotSpot(TM) Client VM
Default Encoding: Cp1252
Language: en
Country: US
--></g></svg>