<?xml version="1.0" encoding="UTF-8" standalone="no"?><svg xmlns="http://www.w3.org/2000/svg" xmlns:xlink="http://www.w3.org/1999/xlink" contentStyleType="text/css" height="615px" preserveAspectRatio="none" style="width:1020px;height:615px;background:#FFFFFF;" version="1.1" viewBox="0 0 1020 615" width="1020px" zoomAndPan="magnify"><defs/><g><rect fill="none" height="27.6094" id="_title" style="stroke:none;stroke-width:1.0;" width="403" x="310" y="10"/><text fill="#000000" font-family="sans-serif" font-size="14" font-weight="bold" lengthAdjust="spacing" textLength="393" x="315" y="29.5332">Scenario 2: barrower didn't pay debt before period ends</text><line style="stroke:#181818;stroke-width:0.5;stroke-dasharray:5.0,5.0;" x1="36" x2="36" y1="121.2188" y2="374.0313"/><line style="stroke:#A80036;stroke-width:1.0;stroke-dasharray:1.0,4.0;" x1="36" x2="36" y1="374.0313" y2="402.0313"/><line style="stroke:#181818;stroke-width:0.5;stroke-dasharray:5.0,5.0;" x1="36" x2="36" y1="402.0313" y2="533.4375"/><line style="stroke:#181818;stroke-width:0.5;stroke-dasharray:5.0,5.0;" x1="255.5" x2="255.5" y1="121.2188" y2="374.0313"/><line style="stroke:#A80036;stroke-width:1.0;stroke-dasharray:1.0,4.0;" x1="255.5" x2="255.5" y1="374.0313" y2="402.0313"/><line style="stroke:#181818;stroke-width:0.5;stroke-dasharray:5.0,5.0;" x1="255.5" x2="255.5" y1="402.0313" y2="533.4375"/><line style="stroke:#181818;stroke-width:0.5;stroke-dasharray:5.0,5.0;" x1="604" x2="604" y1="121.2188" y2="374.0313"/><line style="stroke:#A80036;stroke-width:1.0;stroke-dasharray:1.0,4.0;" x1="604" x2="604" y1="374.0313" y2="402.0313"/><line style="stroke:#181818;stroke-width:0.5;stroke-dasharray:5.0,5.0;" x1="604" x2="604" y1="402.0313" y2="533.4375"/><line style="stroke:#181818;stroke-width:0.5;stroke-dasharray:5.0,5.0;" x1="993" x2="993" y1="121.2188" y2="374.0313"/><line style="stroke:#A80036;stroke-width:1.0;stroke-dasharray:1.0,4.0;" x1="993" x2="993" y1="374.0313" y2="402.0313"/><line style="stroke:#181818;stroke-width:0.5;stroke-dasharray:5.0,5.0;" x1="993" x2="993" y1="402.0313" y2="533.4375"/><text fill="#000000" font-family="sans-serif" font-size="14" lengthAdjust="spacing" textLength="57" x="5" y="118.1426">Borrower</text><ellipse cx="36.5" cy="52.1094" fill="#E2E2F0" rx="8" ry="8" style="stroke:#181818;stroke-width:0.5;"/><path d="M36.5,60.1094 L36.5,87.1094 M23.5,68.1094 L49.5,68.1094 M36.5,87.1094 L23.5,102.1094 M36.5,87.1094 L49.5,102.1094 " fill="none" style="stroke:#181818;stroke-width:0.5;"/><text fill="#000000" font-family="sans-serif" font-size="14" lengthAdjust="spacing" textLength="57" x="5" y="546.9707">Borrower</text><ellipse cx="36.5" cy="558.5469" fill="#E2E2F0" rx="8" ry="8" style="stroke:#181818;stroke-width:0.5;"/><path d="M36.5,566.5469 L36.5,593.5469 M23.5,574.5469 L49.5,574.5469 M36.5,593.5469 L23.5,608.5469 M36.5,593.5469 L49.5,608.5469 " fill="none" style="stroke:#181818;stroke-width:0.5;"/><rect fill="#E2E2F0" height="31.6094" rx="2.5" ry="2.5" style="stroke:#181818;stroke-width:0.5;" width="90" x="210.5" y="88.6094"/><text fill="#000000" font-family="sans-serif" font-size="14" lengthAdjust="spacing" textLength="76" x="217.5" y="110.1426">DAIContract</text><rect fill="#E2E2F0" height="31.6094" rx="2.5" ry="2.5" style="stroke:#181818;stroke-width:0.5;" width="90" x="210.5" y="532.4375"/><text fill="#000000" font-family="sans-serif" font-size="14" lengthAdjust="spacing" textLength="76" x="217.5" y="553.9707">DAIContract</text><rect fill="#E2E2F0" height="31.6094" rx="2.5" ry="2.5" style="stroke:#181818;stroke-width:0.5;" width="159" x="525" y="88.6094"/><text fill="#000000" font-family="sans-serif" font-size="14" lengthAdjust="spacing" textLength="145" x="532" y="110.1426">CollateralizedLeverage</text><rect fill="#E2E2F0" height="31.6094" rx="2.5" ry="2.5" style="stroke:#181818;stroke-width:0.5;" width="159" x="525" y="532.4375"/><text fill="#000000" font-family="sans-serif" font-size="14" lengthAdjust="spacing" textLength="145" x="532" y="553.9707">CollateralizedLeverage</text><text fill="#000000" font-family="sans-serif" font-size="14" lengthAdjust="spacing" textLength="45" x="968" y="118.1426">Lender</text><ellipse cx="993.5" cy="52.1094" fill="#E2E2F0" rx="8" ry="8" style="stroke:#181818;stroke-width:0.5;"/><path d="M993.5,60.1094 L993.5,87.1094 M980.5,68.1094 L1006.5,68.1094 M993.5,87.1094 L980.5,102.1094 M993.5,87.1094 L1006.5,102.1094 " fill="none" style="stroke:#181818;stroke-width:0.5;"/><text fill="#000000" font-family="sans-serif" font-size="14" lengthAdjust="spacing" textLength="45" x="968" y="546.9707">Lender</text><ellipse cx="993.5" cy="558.5469" fill="#E2E2F0" rx="8" ry="8" style="stroke:#181818;stroke-width:0.5;"/><path d="M993.5,566.5469 L993.5,593.5469 M980.5,574.5469 L1006.5,574.5469 M993.5,593.5469 L980.5,608.5469 M993.5,593.5469 L1006.5,608.5469 " fill="none" style="stroke:#181818;stroke-width:0.5;"/><polygon fill="#181818" points="592.5,149.5703,602.5,153.5703,592.5,157.5703,596.5,153.5703" style="stroke:#181818;stroke-width:1.0;"/><line style="stroke:#181818;stroke-width:1.0;" x1="36.5" x2="598.5" y1="153.5703" y2="153.5703"/><text fill="#000000" font-family="sans-serif" font-size="13" font-weight="bold" lengthAdjust="spacing" textLength="7" x="43.5" y="148.7139">1</text><text fill="#000000" font-family="sans-serif" font-size="13" lengthAdjust="spacing" textLength="247" x="54.5" y="148.7139">newLoanRequest(collateralAmount in ETH)</text><polygon fill="#181818" points="981.5,179.9219,991.5,183.9219,981.5,187.9219,985.5,183.9219" style="stroke:#181818;stroke-width:1.0;"/><line style="stroke:#181818;stroke-width:1.0;" x1="36.5" x2="987.5" y1="183.9219" y2="183.9219"/><text fill="#000000" font-family="sans-serif" font-size="13" font-weight="bold" lengthAdjust="spacing" textLength="7" x="43.5" y="179.0654">2</text><text fill="#000000" font-family="sans-serif" font-size="13" lengthAdjust="spacing" textLength="303" x="54.5" y="179.0654">address (via whatsapp, discord, email phone etc :D )</text><polygon fill="#181818" points="615.5,210.2734,605.5,214.2734,615.5,218.2734,611.5,214.2734" style="stroke:#181818;stroke-width:1.0;"/><line style="stroke:#181818;stroke-width:1.0;" x1="609.5" x2="992.5" y1="214.2734" y2="214.2734"/><text fill="#000000" font-family="sans-serif" font-size="13" font-weight="bold" lengthAdjust="spacing" textLength="7" x="621.5" y="209.417">3</text><text fill="#000000" font-family="sans-serif" font-size="13" lengthAdjust="spacing" textLength="147" x="632.5" y="209.417">viewLoanRecord(address)</text><polygon fill="#181818" points="981.5,240.625,991.5,244.625,981.5,248.625,985.5,244.625" style="stroke:#181818;stroke-width:1.0;"/><line style="stroke:#181818;stroke-width:1.0;stroke-dasharray:2.0,2.0;" x1="604.5" x2="987.5" y1="244.625" y2="244.625"/><text fill="#000000" font-family="sans-serif" font-size="13" font-weight="bold" lengthAdjust="spacing" textLength="7" x="611.5" y="239.7686">4</text><text fill="#000000" font-family="sans-serif" font-size="13" lengthAdjust="spacing" textLength="354" x="622.5" y="239.7686">requestedAmountInDAI (half worth of collateralAmount in DAI)</text><polygon fill="#181818" points="266.5,270.9766,256.5,274.9766,266.5,278.9766,262.5,274.9766" style="stroke:#181818;stroke-width:1.0;"/><line style="stroke:#181818;stroke-width:1.0;" x1="260.5" x2="992.5" y1="274.9766" y2="274.9766"/><text fill="#000000" font-family="sans-serif" font-size="13" font-weight="bold" lengthAdjust="spacing" textLength="7" x="272.5" y="270.1201">5</text><text fill="#000000" font-family="sans-serif" font-size="13" lengthAdjust="spacing" textLength="308" x="283.5" y="270.1201">approve(CLContract address, requestedAmountInDAI)</text><polygon fill="#181818" points="615.5,301.3281,605.5,305.3281,615.5,309.3281,611.5,305.3281" style="stroke:#181818;stroke-width:1.0;"/><line style="stroke:#181818;stroke-width:1.0;" x1="609.5" x2="992.5" y1="305.3281" y2="305.3281"/><text fill="#000000" font-family="sans-serif" font-size="13" font-weight="bold" lengthAdjust="spacing" textLength="7" x="621.5" y="300.4717">6</text><text fill="#000000" font-family="sans-serif" font-size="13" lengthAdjust="spacing" textLength="169" x="632.5" y="300.4717">acceptLoanRequest(address)</text><polygon fill="#181818" points="266.5,331.6797,256.5,335.6797,266.5,339.6797,262.5,335.6797" style="stroke:#181818;stroke-width:1.0;"/><line style="stroke:#181818;stroke-width:1.0;" x1="260.5" x2="603.5" y1="335.6797" y2="335.6797"/><text fill="#000000" font-family="sans-serif" font-size="13" font-weight="bold" lengthAdjust="spacing" textLength="7" x="272.5" y="330.8232">7</text><text fill="#000000" font-family="sans-serif" font-size="13" lengthAdjust="spacing" textLength="314" x="283.5" y="330.8232">transferFrom(lender, borrower, requestedAmountInDAI)</text><polygon fill="#181818" points="47.5,362.0313,37.5,366.0313,47.5,370.0313,43.5,366.0313" style="stroke:#181818;stroke-width:1.0;"/><line style="stroke:#181818;stroke-width:1.0;" x1="41.5" x2="254.5" y1="366.0313" y2="366.0313"/><text fill="#000000" font-family="sans-serif" font-size="13" font-weight="bold" lengthAdjust="spacing" textLength="7" x="53.5" y="361.1748">8</text><text fill="#000000" font-family="sans-serif" font-size="13" lengthAdjust="spacing" textLength="184" x="64.5" y="361.1748">transfer(requestedAmountInDAI)</text><polygon fill="#181818" points="615.5,420.3828,605.5,424.3828,615.5,428.3828,611.5,424.3828" style="stroke:#181818;stroke-width:1.0;"/><line style="stroke:#181818;stroke-width:1.0;" x1="609.5" x2="992.5" y1="424.3828" y2="424.3828"/><text fill="#000000" font-family="sans-serif" font-size="13" font-weight="bold" lengthAdjust="spacing" textLength="7" x="621.5" y="419.5264">9</text><text fill="#000000" font-family="sans-serif" font-size="13" lengthAdjust="spacing" textLength="126" x="632.5" y="419.5264">isCapturable(address)</text><polygon fill="#181818" points="981.5,450.7344,991.5,454.7344,981.5,458.7344,985.5,454.7344" style="stroke:#181818;stroke-width:1.0;"/><line style="stroke:#181818;stroke-width:1.0;stroke-dasharray:2.0,2.0;" x1="604.5" x2="987.5" y1="454.7344" y2="454.7344"/><text fill="#000000" font-family="sans-serif" font-size="13" font-weight="bold" lengthAdjust="spacing" textLength="14" x="611.5" y="449.8779">10</text><text fill="#000000" font-family="sans-serif" font-size="13" lengthAdjust="spacing" textLength="22" x="629.5" y="449.8779">true</text><polygon fill="#181818" points="615.5,481.0859,605.5,485.0859,615.5,489.0859,611.5,485.0859" style="stroke:#181818;stroke-width:1.0;"/><line style="stroke:#181818;stroke-width:1.0;" x1="609.5" x2="992.5" y1="485.0859" y2="485.0859"/><text fill="#000000" font-family="sans-serif" font-size="13" font-weight="bold" lengthAdjust="spacing" textLength="14" x="621.5" y="480.2295">11</text><text fill="#000000" font-family="sans-serif" font-size="13" lengthAdjust="spacing" textLength="151" x="639.5" y="480.2295">captureCollateral(address)</text><polygon fill="#181818" points="981.5,511.4375,991.5,515.4375,981.5,519.4375,985.5,515.4375" style="stroke:#181818;stroke-width:1.0;"/><line style="stroke:#181818;stroke-width:1.0;stroke-dasharray:2.0,2.0;" x1="604.5" x2="987.5" y1="515.4375" y2="515.4375"/><text fill="#000000" font-family="sans-serif" font-size="13" font-weight="bold" lengthAdjust="spacing" textLength="14" x="611.5" y="510.5811">12</text><text fill="#000000" font-family="sans-serif" font-size="13" lengthAdjust="spacing" textLength="140" x="629.5" y="510.5811">collateralAmount in ETH</text><!--MD5=[38fc1f82e1ab7e33be3da5d34d74634b]
@startuml scenario2
autonumber

title "Scenario 2: barrower didn't pay debt before period ends"

actor Borrower
participant DAIContract
participant CollateralizedLeverage as CLContract
actor Lender

Borrower -> CLContract: newLoanRequest(collateralAmount in ETH)
Borrower -> Lender: address (via whatsapp, discord, email phone etc :D )
Lender -> CLContract: viewLoanRecord(address)
CLContract - -> Lender: requestedAmountInDAI (half worth of collateralAmount in DAI)
Lender -> DAIContract: approve(CLContract address, requestedAmountInDAI)
Lender -> CLContract: acceptLoanRequest(address)
CLContract -> DAIContract: transferFrom(lender, borrower, requestedAmountInDAI)
DAIContract -> Borrower: transfer(requestedAmountInDAI)
...
Lender -> CLContract: isCapturable(address)
CLContract - -> Lender: true
Lender -> CLContract: captureCollateral(address)
CLContract - -> Lender: collateralAmount in ETH

@enduml

PlantUML version 1.2022.7(Mon Aug 22 20:01:30 EEST 2022)
(GPL source distribution)
Java Runtime: Java(TM) SE Runtime Environment
JVM: Java HotSpot(TM) Client VM
Default Encoding: Cp1252
Language: en
Country: US
--></g></svg>