<?xml version="1.0" encoding="UTF-8" standalone="no"?><svg xmlns="http://www.w3.org/2000/svg" xmlns:xlink="http://www.w3.org/1999/xlink" contentStyleType="text/css" height="565px" preserveAspectRatio="none" style="width:341px;height:565px;background:#FFFFFF;" version="1.1" viewBox="0 0 341 565" width="341px" zoomAndPan="magnify"><defs/><g><rect fill="none" height="27.6094" id="_title" style="stroke:none;stroke-width:1.0;" width="261" x="33.275" y="5"/><text fill="#000000" font-family="sans-serif" font-size="14" font-weight="bold" lengthAdjust="spacing" textLength="251" x="38.275" y="24.5332">State Daigram of single LoanRecord</text><ellipse cx="164.55" cy="54.6094" fill="#222222" rx="10" ry="10" style="stroke:none;stroke-width:1.0;"/><g id="UNDEFINED"><rect fill="#F1F1F1" height="50" rx="12.5" ry="12.5" style="stroke:#181818;stroke-width:0.5;" width="97" x="116.05" y="125.6094"/><line style="stroke:#181818;stroke-width:0.5;" x1="116.05" x2="213.05" y1="153.2188" y2="153.2188"/><text fill="#000000" font-family="sans-serif" font-size="14" lengthAdjust="spacing" textLength="77" x="126.05" y="145.1426">UNDEFINED</text></g><g id="REQUESTED"><rect fill="#F1F1F1" height="50" rx="12.5" ry="12.5" style="stroke:#181818;stroke-width:0.5;" width="105" x="112.05" y="253.6094"/><line style="stroke:#181818;stroke-width:0.5;" x1="112.05" x2="217.05" y1="281.2188" y2="281.2188"/><text fill="#000000" font-family="sans-serif" font-size="14" lengthAdjust="spacing" textLength="85" x="122.05" y="273.1426">REQUESTED</text></g><g id="ACTIVE"><rect fill="#F1F1F1" height="50" rx="12.5" ry="12.5" style="stroke:#181818;stroke-width:0.5;" width="69" x="60.05" y="381.6094"/><line style="stroke:#181818;stroke-width:0.5;" x1="60.05" x2="129.05" y1="409.2188" y2="409.2188"/><text fill="#000000" font-family="sans-serif" font-size="14" lengthAdjust="spacing" textLength="49" x="70.05" y="401.1426">ACTIVE</text></g><g id="COMPLETED"><rect fill="#F1F1F1" height="50" rx="12.5" ry="12.5" style="stroke:#181818;stroke-width:0.5;" width="106" x="59.55" y="509.6094"/><line style="stroke:#181818;stroke-width:0.5;" x1="59.55" x2="165.55" y1="537.2188" y2="537.2188"/><text fill="#000000" font-family="sans-serif" font-size="14" lengthAdjust="spacing" textLength="86" x="69.55" y="529.1426">COMPLETED</text></g><!--MD5=[ca383dd3c0ec947a38c04ce9675076f8]
link *start to UNDEFINED--><g id="link_*start_UNDEFINED"><path d="M164.55,64.6194 C164.55,77.3094 164.55,101.0194 164.55,120.1794 " fill="none" id="*start-to-UNDEFINED" style="stroke:#181818;stroke-width:1.0;"/><polygon fill="#181818" points="164.55,125.4494,168.55,116.4494,164.55,120.4494,160.55,116.4494,164.55,125.4494" style="stroke:#181818;stroke-width:1.0;"/></g><!--MD5=[c022e709f4504e8209fb9e2ed11db392]
link UNDEFINED to REQUESTED--><g id="link_UNDEFINED_REQUESTED"><path d="M164.55,175.8994 C164.55,196.5594 164.55,226.2794 164.55,248.2594 " fill="none" id="UNDEFINED-to-REQUESTED" style="stroke:#181818;stroke-width:1.0;"/><polygon fill="#181818" points="164.55,253.3894,168.55,244.3894,164.55,248.3894,160.55,244.3894,164.55,253.3894" style="stroke:#181818;stroke-width:1.0;"/><text fill="#000000" font-family="sans-serif" font-size="13" lengthAdjust="spacing" textLength="99" x="165.55" y="220.1045">newLoanRequest</text></g><!--MD5=[1728ace10fbb310abbfd990d69dc0997]
link REQUESTED to ACTIVE--><g id="link_REQUESTED_ACTIVE"><path d="M118.42,303.6894 C107.66,311.6694 97.58,321.6394 91.55,333.6094 C85.04,346.5294 85.02,362.4694 86.96,376.0694 " fill="none" id="REQUESTED-to-ACTIVE" style="stroke:#181818;stroke-width:1.0;"/><polygon fill="#181818" points="87.83,381.3394,90.3363,371.8148,87.0289,376.404,82.4397,373.0965,87.83,381.3394" style="stroke:#181818;stroke-width:1.0;"/><text fill="#000000" font-family="sans-serif" font-size="13" lengthAdjust="spacing" textLength="115" x="92.55" y="348.1045">acceptLoanRequest</text></g><!--MD5=[9cb6221f495157e146e3801ac32d9842]
link ACTIVE to COMPLETED--><g id="link_ACTIVE_COMPLETED"><path d="M59.93,422.2194 C34.3,435.3194 6,456.0694 19.55,479.6094 C27.65,493.6894 40.99,504.4294 55.07,512.4894 " fill="none" id="ACTIVE-to-COMPLETED" style="stroke:#181818;stroke-width:1.0;"/><polygon fill="#181818" points="59.46,514.8994,53.5155,507.0468,55.0832,512.4821,49.6479,514.0498,59.46,514.8994" style="stroke:#181818;stroke-width:1.0;"/><text fill="#000000" font-family="sans-serif" font-size="13" lengthAdjust="spacing" textLength="48" x="20.55" y="476.1045">payDebt</text></g><!--MD5=[9cb6221f495157e146e3801ac32d9842]
link ACTIVE to COMPLETED--><g id="link_ACTIVE_COMPLETED"><path d="M98.02,431.8994 C100.97,452.5594 105.22,482.2794 108.36,504.2594 " fill="none" id="ACTIVE-to-COMPLETED-1" style="stroke:#181818;stroke-width:1.0;"/><polygon fill="#181818" points="109.09,509.3894,111.7655,499.9109,108.3769,504.4405,103.8473,501.0519,109.09,509.3894" style="stroke:#181818;stroke-width:1.0;"/><text fill="#000000" font-family="sans-serif" font-size="13" lengthAdjust="spacing" textLength="97" x="106.55" y="476.1045">captureCollateral</text></g><!--MD5=[4a25641348cf2c9352ff494a743bc41b]
link COMPLETED to REQUESTED--><g id="link_COMPLETED_REQUESTED"><path d="M165.59,517.6194 C183.74,509.3294 202.09,497.1494 212.55,479.6094 C245.79,423.8794 235.61,394.2594 212.55,333.6094 C209.02,324.3094 203.06,315.5894 196.53,307.9794 " fill="none" id="COMPLETED-to-REQUESTED" style="stroke:#181818;stroke-width:1.0;"/><polygon fill="#181818" points="192.85,303.8694,195.8796,313.2407,196.1877,307.5922,201.8362,307.9003,192.85,303.8694" style="stroke:#181818;stroke-width:1.0;"/><text fill="#000000" font-family="sans-serif" font-size="13" lengthAdjust="spacing" textLength="99" x="234.55" y="412.1045">newLoanRequest</text></g><!--MD5=[221713cf8c26ec8b1aab7be36f7a4b4f]
@startuml state

title "State Daigram of single LoanRecord"

[*] - -> UNDEFINED
UNDEFINED - -> REQUESTED: newLoanRequest
REQUESTED - -> ACTIVE: acceptLoanRequest
ACTIVE - -> COMPLETED: payDebt
ACTIVE - -> COMPLETED: captureCollateral
COMPLETED - -> REQUESTED: newLoanRequest

@enduml

PlantUML version 1.2022.7(Mon Aug 22 20:01:30 EEST 2022)
(GPL source distribution)
Java Runtime: Java(TM) SE Runtime Environment
JVM: Java HotSpot(TM) Client VM
Default Encoding: Cp1252
Language: en
Country: US
--></g></svg>